<?xml version="1.0" encoding="utf-8" ?>
<svg baseProfile="full" height="300mm" version="1.1" viewBox="0,0,200,300" width="200mm" xmlns="http://www.w3.org/2000/svg" xmlns:ev="http://www.w3.org/2001/xml-events" xmlns:xlink="http://www.w3.org/1999/xlink"><defs /><rect fill="#222222" height="300" width="200" x="0" y="0" /><text fill="#FFFFFF" style="font-size:12px; font-family:Arial; font-weight:bold;" x="10" y="20">Over 10km Runs</text><text fill="#FFFFFF" style="font-size:4px; font-family:Arial" x="10" y="280">ATHLETE</text><text fill="#FFFFFF" style="font-size:9px; font-family:Arial" x="10" y="290">yihong0618</text><text fill="#FFFFFF" style="font-size:4px; font-family:Arial" x="120" y="280">STATISTICS</text><text fill="#FFFFFF" style="font-size:3px; font-family:Arial" x="120" y="285">Number: 1</text><text fill="#FFFFFF" style="font-size:3px; font-family:Arial" x="120" y="290">Weekly: 1.0</text><text fill="#FFFFFF" style="font-size:3px; font-family:Arial" x="141" y="285">Total: 10.4 km</text><text fill="#FFFFFF" style="font-size:3px; font-family:Arial" x="141" y="290">Avg: 10.4 km</text><text fill="#FFFFFF" style="font-size:3px; font-family:Arial" x="167" y="285">Min: 10.4 km</text><text fill="#FFFFFF" style="font-size:3px; font-family:Arial" x="167" y="290">Max: 10.4 km</text><polyline fill="none" points="40.225091562373564,109.80153033620445 40.45919694774784,108.49307006358868 51.930360838770866,107.77936324261827 63.47955985786393,103.49710425850935 81.27156915795058,111.34788874996593 88.3727658521384,110.87208659085445 89.9334684223868,113.96479379356606 101.71677282708697,106.35194702050649 104.36996719636954,108.49307006358868 109.2081451639533,117.29538349370705 107.56940746540204,131.92596645629965 111.5491990193259,141.79843209072715 117.32379852887243,150.95707840373507 130.7458406323567,163.68379340140382 158.05813561053947,199.00791559461504 168.12466718791984,230.40536734642228 169.29519411572255,230.40536734642228 171.40214258548804,229.45395386003656 171.09000207157806,223.15080092306016 160.5552597225178,197.69965232955292 157.19974919664674,182.59494905057363 165.3934376903344,176.52917243080446 156.65350329712965,138.34903508628486 147.75749864708632,115.51114134024829 130.1995947328396,94.69458579976344 106.78905618027784,74.71000427176477 98.75143794389442,70.90334087260999 93.99129510484636,69.0 93.21094381972216,78.39768611232284 96.87859485973604,83.15595134015894 112.25151517591439,95.88412296451861 121.77180085377768,109.20677602500655 129.1071029335726,121.33964581368491 132.54064858797938,134.66172642359743 154.93673047004268,131.45018082438037 159.30669766641222,144.17731487483252 165.78361333278008,176.8859845395782 158.52634638128802,182.11920410906896 164.30094589130022,204.3598715972621 173.118915412575,228.97824654408032 168.90501847304404,231.0 166.01771871815436,227.0754134596209 157.98010048177093,203.6462802568567 153.14192251442,194.25058078370057 131.9944026884623,166.53834614373045 116.46541211544536,151.43284836929524 106.55495079467073,134.18594298919197 106.00870489515364,129.54703447618522 108.34975875052623,118.84172234643484 120.83537931158207,111.2289382458548 128.9510326765012,121.2206973155844 133.0088593591936,134.89961799792945 153.14192251442,130.02282163652126 145.88465556292795,113.84584381524473 125.04927625111304,90.05536803294672 106.55495079467073,75.06687771144789 94.06933023338206,69.11895898351213 93.60111946216784,79.82516969385324 100.62428102805279,86.72462517954409 94.06933023338206,92.19654997828184 85.95367686846294,90.05536803294672 83.14441224210896,91.95864125539083 78.77444504573941,97.3115644096979 79.86693684477359,107.66041202202905 60.28011958906427,110.87208659085445 55.9881875209976,115.1542922645458 43.81470747385174,122.17228462843923 34.76263256673701,133.71015917236218 26.881084587424994,129.42808762652567 38.43028360651806,101.59386810689466 48.57485031266697,101.71282054565381 58.79745214735158,97.78737746004481 63.32348960079253,103.49710425850935 53.49106340878643,109.44467782106949 38.11814309260808,109.92048112652265" stroke="#4DD2FF" stroke-linecap="round" stroke-linejoin="round" stroke-width="0.5"><title>2022-04-10 10.4km</title></polyline></svg>